<?xml version="1.0" encoding="utf-8"?>
<!-- Generator: Adobe Illustrator 18.1.1, SVG Export Plug-In . SVG Version: 6.00 Build 0)  -->
<!DOCTYPE svg PUBLIC "-//W3C//DTD SVG 1.1//EN" "http://www.w3.org/Graphics/SVG/1.1/DTD/svg11.dtd">
<svg version="1.1" id="Layer_1" xmlns="http://www.w3.org/2000/svg" xmlns:xlink="http://www.w3.org/1999/xlink" x="0px" y="0px"
	 viewBox="0 0 1156.553 720" enable-background="new 0 0 1156.553 720" xml:space="preserve">
<g opacity="0.22">
	<g>
		<g>
			<polygon fill="none" stroke="#E4E4E4" stroke-width="2" stroke-miterlimit="10" points="0,0 578.276,-1001.604 1156.553,0 			"/>
			<polygon fill="none" stroke="#E4E4E4" stroke-width="2" stroke-miterlimit="10" points="0,480 578.276,-521.604 1156.553,480 			
				"/>
			<polygon fill="none" stroke="#E4E4E4" stroke-width="2" stroke-miterlimit="10" points="0,720 578.276,-281.604 1156.553,720 			
				"/>
			<polygon fill="none" stroke="#E4E4E4" stroke-width="2" stroke-miterlimit="10" points="0,240 578.276,-761.604 1156.553,240 			
				"/>
		</g>
		<g>
			<polygon fill="none" stroke="#E4E4E4" stroke-width="2" stroke-miterlimit="10" points="0,-282 578.276,719.604 1156.553,-282 
							"/>
			<polygon fill="none" stroke="#E4E4E4" stroke-width="2" stroke-miterlimit="10" points="0,-762 578.276,239.604 1156.553,-762 
							"/>
			<polygon fill="none" stroke="#E4E4E4" stroke-width="2" stroke-miterlimit="10" points="0,-1002 578.276,-0.396 1156.553,-1002 
							"/>
			<polygon fill="none" stroke="#E4E4E4" stroke-width="2" stroke-miterlimit="10" points="0,-522 578.276,479.604 1156.553,-522 
							"/>
		</g>
	</g>
	<g>
		<polygon fill="none" stroke="#E4E4E4" stroke-width="2" stroke-miterlimit="10" points="0,1002 578.276,0.396 1156.553,1002 		"/>
		<polygon fill="none" stroke="#E4E4E4" stroke-width="2" stroke-miterlimit="10" points="0,1482 578.276,480.396 1156.553,1482 		
			"/>
		<polygon fill="none" stroke="#E4E4E4" stroke-width="2" stroke-miterlimit="10" points="0,1722 578.276,720.396 1156.553,1722 		
			"/>
		<polygon fill="none" stroke="#E4E4E4" stroke-width="2" stroke-miterlimit="10" points="0,1242 578.276,240.396 1156.553,1242 		
			"/>
	</g>
</g>
</svg>
